<svg xmlns="http://www.w3.org/2000/svg" width="256" height="256" viewBox="0 0 100 100"><rect width="100" height="100" rx="50" fill="#0b0443"></rect><path d="M38.65 50.15L38.65 50.15Q38.65 44.66 36.09 41.89Q33.53 39.11 29.26 39.11L29.26 39.11Q28.41 39.11 27.52 39.17Q26.64 39.23 25.72 39.36L25.72 39.36L25.72 60.58Q26.39 60.71 27.37 60.80Q28.35 60.89 29.20 60.89L29.20 60.89Q33.41 60.89 36.03 58.20Q38.65 55.52 38.65 50.15ZM49.63 49.97L49.63 49.97Q49.63 54.85 48.17 58.51Q46.71 62.17 43.99 64.61Q41.28 67.05 37.50 68.27Q33.71 69.49 29.14 69.49L29.14 69.49Q28.10 69.49 26.76 69.43Q25.42 69.37 23.98 69.18Q22.55 69.00 21.12 68.73Q19.68 68.45 18.46 67.96L18.46 67.96Q15.11 66.68 15.11 63.51L15.11 63.51L15.11 35.02Q15.11 33.74 15.81 33.04Q16.51 32.34 17.73 31.91L17.73 31.91Q20.35 31.06 23.28 30.79Q26.21 30.51 28.53 30.51L28.53 30.51Q33.29 30.51 37.16 31.67Q41.03 32.83 43.81 35.24Q46.58 37.65 48.11 41.31Q49.63 44.97 49.63 49.97ZM84.77 36.92L84.77 36.92Q84.77 38.50 83.98 39.66Q83.18 40.82 82.15 41.49L82.15 41.49Q80.56 40.45 78.76 39.72Q76.96 38.99 74.58 38.99L74.58 38.99Q69.89 38.99 67.39 41.89Q64.88 44.78 64.88 50.03L64.88 50.03Q64.88 55.46 67.60 58.24Q70.31 61.01 75.13 61.01L75.13 61.01Q77.63 61.01 79.37 60.34Q81.11 59.67 82.70 58.81L82.70 58.81Q83.73 59.67 84.31 60.86Q84.89 62.05 84.89 63.63L84.89 63.63Q84.89 65.04 84.16 66.20Q83.43 67.35 81.66 68.15L81.66 68.15Q80.56 68.64 78.55 69.12Q76.53 69.61 73.67 69.61L73.67 69.61Q69.52 69.61 65.92 68.45Q62.32 67.29 59.64 64.91Q56.95 62.54 55.43 58.85Q53.90 55.15 53.90 50.03L53.90 50.03Q53.90 45.27 55.40 41.61Q56.89 37.95 59.49 35.45Q62.08 32.95 65.56 31.67Q69.03 30.39 73.00 30.39L73.00 30.39Q78.61 30.39 81.69 32.22Q84.77 34.05 84.77 36.92Z" fill="#fff"></path></svg>